<?xml version="1.0" encoding="utf-8"?>
<!-- Generator: Adobe Illustrator 20.0.0, SVG Export Plug-In . SVG Version: 6.00 Build 0)  -->
<svg version="1.1" id="レイヤー_1" xmlns="http://www.w3.org/2000/svg" xmlns:xlink="http://www.w3.org/1999/xlink" x="0px"
	 y="0px" width="500px" height="61.8px" viewBox="0 0 500 61.8" style="enable-background:new 0 0 500 61.8;" xml:space="preserve">
<style type="text/css">
	.st0{fill:#FF0000;}
</style>
<g>
	<path d="M220.6,34.5l-4.7,17.2c-1.1,0-2.2,0.3-4.2,0.3c-9.2,0-8.3-2.8-4.4-17.8c4.2-15.6,6.4-18.6,12.2-18.6c5.6,0,5.6,3.6,4.2,8.3
		h14.2c2.2-8.9,0.8-16.7-15.6-16.7c-18.3,0-23.4,3.9-29.2,26.7c-5.6,21.4-3.6,27,16.1,27c9.5,0,13.3-0.6,19.2-1.7l6.7-24.7H220.6
		L220.6,34.5z M254.2,51.8c-1.9,0-2.5-0.6-2.2-1.9l3.1-12.5H274l2.2-8.3h-18.9l2.2-8.3c0.6-2.2,2.2-4.2,5-4.2h15l2.2-8.3h-22
		c-9.2,0-12,1.7-15.3,15.3l-6.4,25c-1.9,8.3,0.6,12,7.2,12h18.9c3.6,0,6.1-1.9,7.2-5l1.7-3.9h-18.9V51.8z M469.7,51.8
		c-1.9,0-2.5-0.6-2.2-1.9l3.1-12.5h18.9l2.2-8.3h-18.9l2.2-8.3c0.6-2.2,2.2-4.2,5.3-4.2h15l2.2-8.3h-22c-9.2,0-12,1.7-15.3,15.3
		l-6.4,25c-1.9,8.3,0.6,12,7.2,12H480c3.6,0,6.1-1.9,7.2-5l1.7-3.9h-19.2L469.7,51.8z M171.4,8.4h-18.9l-13.1,50.9
		c-0.3,0.8,0.3,1.7,1.1,1.7h16.7c21.1,0,24.7-4.2,30.3-26.4C192.8,14.8,189.7,8.4,171.4,8.4z M159.4,51.8h-3.9l9.2-35.3h4.4
		c8.1,0,8.1,2.8,4.2,17.8C169.4,49.6,167.2,51.8,159.4,51.8z M435.2,8.4c-10.8,0-15.8,0.3-18.9,0l-13.1,50.9
		c-0.3,0.8,0.3,1.7,1.1,1.7h12.5l11.4-44.2h4.7c6.1,0,7,2.2,5.3,8.3l-8.9,34.2c-0.3,0.8,0.3,1.7,1.1,1.7H443l9.2-35.9
		C455.8,12.6,450.2,8.4,435.2,8.4L435.2,8.4z M326,8.4l-2.2,8.6h13.9c0.3,0,0.3,0.3,0,0.3c-2.2,1.7-3.6,4.2-4.2,6.7l-8.9,35.3
		c-0.3,0.8,0.3,1.7,1.1,1.7h13.6L350.7,17h7c3.9,0,6.4-1.7,7.5-5l1.4-3.6L326,8.4L326,8.4z M130,60.7L143,9.8
		c0.3-0.8-0.3-1.7-1.1-1.7h-13.3l-13.1,51.2c-0.3,0.8,0.3,1.7,1.1,1.7H130V60.7z M388,7.6c-15.8,0-22.8,2.8-28.9,27
		c-5.3,20.9-1.1,27,15,27c16.4,0,22.8-3.3,28.9-27C407.4,17.6,406.6,7.6,388,7.6z M376.3,52.6c-6.1,0-7-2.2-2.8-18.6
		c3.6-13.6,7-18.3,12.2-18.3c6.1,0,6.7,3.3,2.8,18.3C384.9,49,381,52.6,376.3,52.6z"/>
	<path class="st0" d="M10.7,34.8L19,6.2c0.8-3.1,4.2-5.6,7.5-5.6h25c0.6,0,0.6,0.6,0.3,0.8c-13.1,8.9-28.6,22.2-40.3,33.9
		C11,35.7,10.4,35.4,10.7,34.8z"/>
	<path d="M30.4,52.3l8.1-28.6c0-0.6-0.3-0.8-0.6-0.6C26,33.4,11.5,48.4,2.6,59.8c-0.3,0.3,0,0.8,0.3,0.8h35
		c14.7,0,22.8-4.7,25.9-15.6c2.5-8.9-2.2-15-9.7-16.7c0,0-0.3-0.3,0-0.3c6.4-1.1,12.8-3.6,15-12.8c2.5-10-5.3-15.6-13.9-15l-13.3,47
		c-0.8,2.5-3.3,4.7-6.1,4.7h-5.3V52.3z M106.9,39.8c-0.6-1.7-1.1-2.8-1.7-3.6v-0.3c6.1-1.9,10-5.6,11.7-12.2
		c2.2-8.6-3.1-15.3-16.7-15.3H79.9L66.6,59.3c-0.3,0.8,0.3,1.7,1.1,1.7h12.5l11.4-44.2h5.3c4.7,0,6.7,3.1,5.6,7
		C101,29,96.9,32,92.1,32h-1.9l5.3,25.3c0.6,2.5,1.9,3.6,4.7,3.6h11.1C111.3,61,106.9,39.8,106.9,39.8z M278.1,42.9
		c-5.3,12.8,1.7,18.6,15.8,18.6c13.1,0,20-3.1,23.1-15c1.1-4.2,0.3-8.3-2.2-11.1c-4.7-5.3-14.2-6.1-17.5-9.2
		c-1.7-1.7-1.7-3.6-1.1-5.6c0.8-3.3,3.1-5.3,7-5.3c5.8,0,6.1,3.6,4.4,7.8h12.5c3.1-8.9-0.8-15.8-15.6-15.8c-12.5,0-19.2,5-21.4,14.2
		c-0.6,2.5-0.6,6.7,1.1,9.5c3.3,5.8,12.5,6.7,17.5,10c2.2,1.4,2.2,3.6,1.7,5.8c-1.1,4.4-3.3,6.4-7.8,6.4c-4.2,0-6.7-2.5-4.4-10
		h-13.1V42.9z"/>
</g>
</svg>
