<svg preserveAspectRatio="xMinYMin meet" viewBox="0 0 177 43" width="177" height="43" xmlns="http://www.w3.org/2000/svg"><g fill="#455065" fill-rule="evenodd"><path d="M45.908 27.44c-4.3 3.17-10.533 4.86-15.9 4.86-7.524 0-14.298-2.783-19.423-7.412-.403-.364-.042-.86.441-.576 5.53 3.218 12.37 5.154 19.433 5.154 4.765 0 10.005-.986 14.824-3.032.728-.309 1.337.477.625 1.005"/><path d="M47.696 25.394c-.548-.702-3.634-.332-5.019-.167-.422.051-.486-.316-.106-.58 2.458-1.73 6.49-1.23 6.961-.651.47.583-.122 4.626-2.432 6.555-.354.296-.693.139-.535-.254.519-1.295 1.682-4.198 1.13-4.903M42.774 12.435v-1.681c0-.255.193-.425.425-.425h7.528a.42.42 0 01.435.425v1.44c-.003.241-.206.557-.567 1.056l-3.9 5.57c1.449-.036 2.979.18 4.293.92.296.168.377.413.4.655v1.794c0 .245-.271.531-.555.383-2.316-1.214-5.392-1.346-7.953.013-.26.142-.534-.142-.534-.386v-1.704c0-.274.003-.741.277-1.157l4.519-6.48h-3.933c-.242 0-.435-.172-.435-.423M15.313 22.927h-2.29a.433.433 0 01-.409-.39V10.783a.43.43 0 01.441-.422h2.136c.222.01.4.18.416.393v1.536h.041c.558-1.485 1.605-2.177 3.015-2.177 1.434 0 2.33.692 2.974 2.177.554-1.485 1.813-2.177 3.163-2.177.96 0 2.01.396 2.65 1.285.726.989.577 2.426.577 3.685l-.003 7.418a.433.433 0 01-.441.426h-2.287a.435.435 0 01-.412-.426v-6.23c0-.495.045-1.732-.065-2.203-.17-.789-.683-1.011-1.346-1.011-.554 0-1.134.37-1.37.963-.234.593-.212 1.585-.212 2.252v6.23a.433.433 0 01-.441.425h-2.287a.433.433 0 01-.413-.426l-.003-6.23c0-1.31.216-3.24-1.41-3.24-1.647 0-1.582 1.881-1.582 3.24v6.23a.433.433 0 01-.442.426M57.643 10.113c3.398 0 5.238 2.918 5.238 6.629 0 3.585-2.033 6.43-5.238 6.43-3.337 0-5.154-2.919-5.154-6.556 0-3.659 1.84-6.503 5.154-6.503m.02 2.4c-1.689 0-1.795 2.3-1.795 3.733 0 1.437-.023 4.503 1.775 4.503 1.775 0 1.859-2.474 1.859-3.981 0-.992-.042-2.178-.342-3.118-.258-.819-.77-1.137-1.498-1.137M67.287 22.927h-2.28a.435.435 0 01-.413-.426l-.003-11.757a.433.433 0 01.441-.383h2.123c.2.01.364.145.41.328v1.798h.041c.641-1.608 1.54-2.374 3.121-2.374 1.028 0 2.03.37 2.674 1.385.599.94.599 2.522.599 3.66v7.398a.44.44 0 01-.441.37h-2.297a.434.434 0 01-.406-.37v-6.384c0-1.285.148-3.167-1.433-3.167-.558 0-1.07.374-1.324.941-.322.718-.364 1.433-.364 2.226v6.33a.44.44 0 01-.448.425M36.773 17.312c0 .892.022 1.636-.429 2.429-.364.644-.943 1.04-1.584 1.04-.88 0-1.395-.67-1.395-1.659 0-1.952 1.749-2.306 3.408-2.306zm2.31 5.582a.478.478 0 01-.542.055c-.76-.631-.898-.924-1.314-1.527-1.256 1.282-2.148 1.666-3.775 1.666-1.93 0-3.427-1.189-3.427-3.57 0-1.858 1.005-3.124 2.441-3.742 1.244-.548 2.98-.645 4.307-.796v-.296c0-.545.042-1.189-.28-1.66-.277-.421-.812-.595-1.286-.595-.873 0-1.649.448-1.839 1.375-.039.206-.19.41-.4.419l-2.219-.238c-.187-.042-.396-.194-.341-.48C30.917 10.812 33.352 10 35.53 10c1.114 0 2.57.296 3.45 1.14 1.114 1.04 1.008 2.43 1.008 3.94v3.569c0 1.073.444 1.543.863 2.123.145.206.177.454-.01.608a97.188 97.188 0 00-1.755 1.52l-.004-.006M6.748 17.312c0 .892.023 1.636-.428 2.429-.364.644-.94 1.04-1.585 1.04-.88 0-1.391-.67-1.391-1.659 0-1.952 1.749-2.306 3.404-2.306zm2.31 5.582a.478.478 0 01-.541.055c-.76-.631-.896-.924-1.314-1.527-1.257 1.282-2.146 1.666-3.776 1.666-1.926 0-3.427-1.189-3.427-3.57 0-1.858 1.008-3.124 2.442-3.742 1.243-.548 2.98-.645 4.306-.796v-.296c0-.545.042-1.189-.277-1.66-.28-.421-.815-.595-1.285-.595-.873 0-1.652.448-1.842 1.375-.04.206-.19.41-.397.419l-2.222-.238c-.187-.042-.393-.194-.342-.48C.895 10.812 3.327 10 5.505 10c1.115 0 2.57.296 3.45 1.14 1.114 1.04 1.008 2.43 1.008 3.94v3.569c0 1.073.445 1.543.863 2.123.149.206.18.454-.006.608a97.198 97.198 0 00-1.756 1.52l-.006-.006"/></g></svg>
