<svg preserveAspectRatio="xMinYMin meet" viewBox="0 0 177 43" width="177" height="43" xmlns="http://www.w3.org/2000/svg"><g fill="#515763" fill-rule="nonzero"><path d="M94.66 29.5a.44.44 0 0 1-.46-.46V15.5h-4.6a.44.44 0 0 1-.46-.46v-1.87c0-.28.18-.47.46-.47h12.24c.28 0 .46.2.46.47v1.86c0 .28-.18.47-.46.47h-4.6v13.54c0 .27-.19.46-.46.46h-2.12zm-35.24-6.76l-2.41-6.93-2.44 6.93h4.85zm5.36 6.21c.1.28-.07.55-.36.55h-2.18c-.32 0-.5-.15-.61-.44l-1.24-3.57H53.6l-1.24 3.57c-.1.3-.3.44-.6.44H49.7c-.28 0-.47-.27-.36-.55l5.7-15.82c.1-.3.28-.43.6-.43h2.81c.32 0 .53.13.63.43l5.7 15.82zm16.31-1.72c1.35 0 2.25-.65 2.98-1.76l-3.4-3.65c-1.3.73-2.14 1.47-2.14 2.94a2.49 2.49 0 0 0 2.56 2.47zm.95-12.3c-1.1 0-1.73.7-1.73 1.62 0 .71.38 1.34 1.24 2.26 1.5-.86 2.12-1.38 2.12-2.3 0-.87-.54-1.58-1.63-1.58zm9.3 13.98c.27.3.1.6-.23.6h-2.67c-.35 0-.54-.1-.77-.37l-1.6-1.76a5.87 5.87 0 0 1-5.04 2.5c-3.07 0-5.48-1.85-5.48-5.02 0-2.43 1.3-3.74 3.27-4.83a5.17 5.17 0 0 1-1.4-3.31c0-2.6 1.82-4.4 4.57-4.4 2.82 0 4.54 1.67 4.54 4.12 0 2.1-1.51 3.28-3.1 4.16l2.35 2.54 1.32-2.31c.17-.27.36-.38.7-.38h2.03c.33 0 .52.23.31.59l-2.35 4.03 3.55 3.84zm-20.96.6c.27 0 .46-.2.46-.47V15.5h4.6c.28 0 .46-.2.46-.46v-1.87a.44.44 0 0 0-.46-.47H63.2a.44.44 0 0 0-.46.47v1.86c0 .28.18.47.46.47h4.6v13.54c0 .27.19.46.46.46h2.12zM8.22 37.67a21 21 0 0 0 26.73-.8c.04-.03.02-.06-.03-.03-1.65 1.1-6.38 3.52-13.82 3.52-6.46 0-10.55-1.44-12.85-2.73-.05-.02-.06.01-.03.04m14.31 1.07c5.17 0 10.85-1.4 14.25-4.2.93-.76 1.82-1.77 2.6-3.13.47-.78.91-1.7 1.28-2.62.01-.05-.02-.07-.05-.02-3.16 4.65-12.3 7.55-21.76 7.55-6.68 0-13.86-2.13-16.68-6.21-.02-.04-.05-.02-.03.02 2.62 5.57 10.57 8.61 20.39 8.61m-5.65-9.24c-10.75 0-15.82-5-16.74-8.42-.01-.05-.05-.04-.05 0 0 1.15.12 2.64.32 3.62.1.48.48 1.24 1.05 1.84 2.6 2.71 9.1 6.51 20.34 6.51 15.32 0 18.82-5.1 19.54-6.78.51-1.2.77-3.37.77-5.19 0-.44 0-.8-.02-1.14 0-.05-.04-.06-.05 0-.76 4.1-13.85 9.56-25.16 9.56M2.12 12.07a20.82 20.82 0 0 0-1.5 4.36c-.1.45-.05.67.1 1.01 1.3 2.74 7.81 7.11 23.02 7.11 9.28 0 16.49-2.27 17.65-6.43.22-.77.23-1.58-.05-2.67a20.4 20.4 0 0 0-1.37-3.63c-.02-.03-.05-.03-.04.01.18 5.46-15.03 8.97-22.7 8.97-8.32 0-15.26-3.31-15.26-7.5 0-.4.08-.8.19-1.22 0-.03-.02-.04-.04 0m32.86-6.7c.09.13.13.28.13.48 0 2.33-7.14 6.46-18.5 6.46-8.36 0-9.93-3.1-9.93-5.07 0-.7.27-1.42.87-2.16.03-.04 0-.06-.03-.02a21.05 21.05 0 0 0-2.96 3.07c-.42.53-.68 1-.68 1.27 0 4.09 10.24 7.05 19.82 7.05 10.2 0 14.75-3.33 14.75-6.26 0-1.04-.4-1.65-1.45-2.84-.67-.77-1.31-1.4-1.99-2.01-.03-.03-.05 0-.03.02m-3.13-2.33A20.78 20.78 0 0 0 21.1.08c-3.97 0-7.73 1.11-10.9 3.05-.94.58-1.47 1.05-1.47 1.65 0 1.77 4.14 3.68 11.48 3.68 7.27 0 12.9-2.09 12.9-4.1 0-.48-.41-.81-1.26-1.32"/></g></svg>
