<svg preserveAspectRatio="xMinYMin meet" viewBox="0 0 177 43" width="177" height="43" xmlns="http://www.w3.org/2000/svg"><g fill="#455065" fill-rule="nonzero"><path d="M70.258 22.448c0-1.841 1.313-3.54 3.232-3.54 1.971 0 3.234 1.404 3.234 3.54 0 1.885-1.317 3.5-3.234 3.5-1.919 0-3.232-1.503-3.232-3.5zm-1.907 0c0 2.973 2.277 5.142 5.14 5.142a5.12 5.12 0 0 0 5.141-5.142c0-3.066-2.193-5.174-5.142-5.174-2.867 0-5.14 2.303-5.14 5.174zM57.107 22.421c0 3 2.136 5.118 5.142 5.118 1.669 0 3.036-.665 3.955-1.929l.05-.076-1.412-1.177-.047.095c-.542.983-1.392 1.491-2.546 1.491-1.964 0-3.234-1.535-3.234-3.522 0-1.978 1.411-3.507 3.234-3.507 1.091 0 2.066.608 2.534 1.427l.05.08 1.448-1.149-.062-.077a5.099 5.099 0 0 0-3.97-1.89c-2.783 0-5.142 2.133-5.142 5.116M129.299 23.21v4.134h1.85V23.21l3.596-5.69h-2.038l-2.483 3.942-2.404-3.941-2.11-.001 3.589 5.69M97.87 19.004h.456c1.508-.004 2.164.573 2.164 1.614 0 1.025-.694 1.583-2.164 1.583a3.402 3.402 0 0 1-.457-.033v-3.164zm-1.852-1.484v9.823h1.851v-3.655c.124.017.302.03.455.03 2.373 0 4.07-1.051 4.07-3.094 0-1.958-1.416-3.104-4.07-3.104h-2.306zM83.623 22.042l3.051 5.55 3.02-5.554 1.216 5.305h1.945l-2.58-9.994-3.567 6.636-3.635-6.636-2.445 9.996h1.812l1.183-5.303M33.347 23.352l-6.505-6.003v9.997h1.8V21.58l6.5 5.998V17.519h-1.795v5.833M20.718 17.52v9.824h1.867v-9.823h-1.867M12.29 23.67l1.253-2.827 1.163 2.828H12.29zm6.034 3.673l-4.781-9.997-4.789 9.997h1.88l.94-2.088h3.789l.908 2.088h2.053zM2.585 21.68l.001-2.676.328.001c1.364 0 2.037.368 2.037 1.352 0 1.003-.687 1.322-1.972 1.322l-.394.001zm.819 1.5c1.295-.004 2.049.316 2.049 1.36 0 .91-.692 1.31-2.053 1.32h-.815v-2.68h.819zm2.064-1.073c.769-.343 1.337-1.096 1.337-2.034 0-1.7-1.35-2.552-3.715-2.552H.735v9.823H3.52c2.516 0 3.844-1.015 3.844-2.826 0-1.199-.753-2.028-1.895-2.41zM47.329 25.334c-.273.374-.881.754-1.536.754-.911 0-1.483-.568-1.483-1.38 0-.69.515-1.32 1.047-1.6.015-.007.033-.015.044-.022l1.928 2.248zm-2.201-5.594c0-.69.489-1.11 1.132-1.11.646 0 1.075.413 1.075 1.02 0 .676-.676 1.208-1.356 1.556-.347-.338-.851-.888-.851-1.466zm4.016 7.616h2.167s-1.661-1.88-1.916-2.2c.236-.279 1.64-2.463 1.64-2.463l-1.742-.002-.87 1.313-1.559-1.755c1.293-.68 2.112-1.642 2.112-2.675 0-1.383-1.201-2.284-2.708-2.284-1.703 0-2.839 1.004-2.839 2.418 0 1.005.626 1.813 1.06 2.308-1.035.565-1.951 1.41-1.951 2.849 0 1.534 1.25 2.725 3.05 2.725 1.084 0 2.001-.381 2.745-1.169l.811.935zM121.713 23.35l-6.503-6.003v9.997h1.799V21.58l6.5 5.997V17.52h-1.796v5.83M106.787 23.67l1.253-2.828 1.163 2.828h-2.416zm6.035 3.673l-4.782-9.997-4.788 9.997h1.879l.943-2.089h3.785l.91 2.089h2.053zM159.559 22.43c0 4.802-3.9 8.695-8.71 8.695-4.811 0-8.71-3.893-8.71-8.696 0-4.801 3.898-8.694 8.71-8.694.472 0 .935.04 1.388.112l-.744.961a7.98 7.98 0 0 0-.625-.027c-4.051 0-7.334 3.204-7.334 7.156 0 3.953 3.283 7.156 7.334 7.156 4.05 0 7.335-3.203 7.335-7.156 0-3.041-1.945-5.637-4.688-6.675l-.264-1.188c3.642 1.04 6.308 4.386 6.308 8.355zm-5.643.417l-1.575-7.077-4.401 5.698 5.976 1.38z"/></g></svg>
