<?xml version="1.0" encoding="utf-8"?>
<!-- Generator: Adobe Illustrator 16.0.2, SVG Export Plug-In . SVG Version: 6.00 Build 0)  -->
<!DOCTYPE svg PUBLIC "-//W3C//DTD SVG 1.1//EN" "http://www.w3.org/Graphics/SVG/1.1/DTD/svg11.dtd">
<svg version="1.1" id="Layer_1" xmlns="http://www.w3.org/2000/svg" xmlns:xlink="http://www.w3.org/1999/xlink" x="0px" y="0px"
	 width="370px" height="134px" viewBox="0 0 370 134" enable-background="new 0 0 370 134" xml:space="preserve">
<g>
	<path fill="#726C65" d="M335.04,38.63c2.24,0.24,3.96-1.38,5.77-2.42c-0.08,4.67-0.12,9.34-0.14,14c-1.82-0.81-3.55-2.11-5.64-1.92
		c-13.45,0.05-26.89,0.07-40.34,0.15c-0.05,5.4-0.14,10.81-0.09,16.22c8.79,0,17.59,0.04,26.39-0.03c1.82,0.14,3.29-1.07,4.86-1.8
		c-0.11,4.35-0.16,8.7-0.08,13.04c-10.3-1.43-20.77-0.32-31.14-0.55c-0.05,5.69-0.14,11.39-0.1,17.08
		c13.52,0.08,27.03-0.11,40.55-0.05c1.98,0.11,3.85-0.61,5.72-1.14c-0.17,3.85-0.22,7.7-0.07,11.56
		c-6.82-1.45-13.83-0.79-20.73-0.64c-12.96,0.09-25.93,0.05-38.9,0.15c0.68-2.7,1.22-5.45,1.14-8.24c0-16.69,0.11-33.38,0.14-50.08
		c0.12-1.84-0.69-3.53-1.26-5.24C299.09,38.69,317.06,38.62,335.04,38.63z"/>
	<path fill="#726C65" d="M262.08,38.82c2.18,0.25,4.08-0.85,5.93-1.81c-0.12,4.24-0.16,8.48-0.07,12.72
		c-7.84-2.27-16.18-0.63-24.24-1.02c-0.1,16.12-0.1,32.25-0.13,48.37c-0.23,2.12,1.33,3.71,2.3,5.42
		c-5.19-0.08-10.39-0.14-15.58,0.11c0.57-2.48,1.03-5,0.95-7.56c-0.06-15.43,0.14-30.85-0.01-46.28
		c-8.22,0.38-16.64-0.95-24.67,1.21c-0.02-4.18-0.03-8.35,0.09-12.53c1.76,0.65,3.45,1.66,5.36,1.77
		C228.71,39.44,245.39,38.61,262.08,38.82z"/>
	<path fill="#726C65" d="M85.04,40.06c1.87-0.05,3.7-0.45,5.52-0.84c-0.1,4.09-0.1,8.18-0.01,12.27c-1.45-0.66-2.84-1.66-4.48-1.71
		c-13.59-0.19-27.18,0.41-40.77,0.33c-0.16,5.39-0.7,10.76-0.54,16.15c8.44,0.09,16.88-0.07,25.32-0.1
		c2.31,0.16,4.37-0.92,6.35-1.94c0.05,4.68,0.03,9.36-0.11,14.04c-1.45-0.65-2.77-1.84-4.42-1.86c-8.89-0.14-17.78,0.28-26.67,0.17
		c-0.03,5.73-0.06,11.47,0.02,17.21c13.59-0.11,27.18-0.12,40.77-0.26c2.06,0.13,3.97-0.7,5.87-1.37c-0.1,3.91-0.17,7.83-0.1,11.74
		c-5.22-0.86-10.53-0.35-15.79-0.4c-14.91,0.22-29.83,0.05-44.73,0.45c1.6-3.44,1.1-7.28,1.14-10.95
		c-0.02-16.67-0.03-33.35,0.13-50.03c-0.61-0.56-1.83-1.67-2.44-2.23C48.4,40.09,66.73,40.34,85.04,40.06z"/>
	<path fill="#726C65" d="M178.01,39.6c4.57-0.04,9.15,0.02,13.72-0.16c-0.27,2.16-0.46,4.33-0.46,6.51
		c-0.03,17.35,0,34.71-0.14,52.07c-0.23,1.93,1.25,3.32,2.18,4.83c-5.7-0.14-11.42-0.23-17.11,0.08c0.87-1.28,2.39-2.38,2.26-4.1
		c0.04-17.29,0.09-34.59,0.21-51.88C178.75,44.48,178.46,42.02,178.01,39.6z"/>
	<path fill="#726C65" d="M106.44,39.97c4.81-0.03,9.63-0.08,14.45-0.03c-0.67,1.94-1.46,3.9-1.33,6
		c0.05,15.82-0.06,31.65,0.01,47.47c12.84-0.03,25.68-0.01,38.52-0.18c2.1,0.11,3.86-1.13,5.63-2.05
		c-0.12,4.58-0.12,9.15-0.22,13.73c-1.68-0.95-3.43-2-5.45-1.75c-17.26,0.14-34.53,0.06-51.79,0.24c0.53-2.42,0.99-4.86,0.94-7.34
		c-0.08-16.71,0.06-33.42,0.05-50.13C107.25,43.91,106.82,41.94,106.44,39.97z"/>
</g>
<g>
	<path fill="#473122" d="M270.72,51.74c0.12-4.17-1.19-9.56,3.46-11.79c0.61,5.29,0.37,10.61,0.29,15.92
		c-7.95-1.03-15.99-0.56-23.98-0.47c-0.06,17.02-0.11,34.04-0.19,51.06c0.7,0.41,2.1,1.22,2.79,1.62c-5.64,0.61-11.33,0.49-17,0.47
		c-0.11-0.72-0.34-2.16-0.45-2.88c3.82-0.17,7.64-0.22,11.47-0.26c-0.58-6.45-0.26-12.94-0.31-19.41
		c0.12-11.39-0.22-22.78,0.24-34.16C254.93,51.75,262.83,51.86,270.72,51.74z"/>
	<path fill="#473122" d="M343.54,51.6c0.3-4-1.65-10.03,3.45-11.63c0.33,5.32,0.25,10.67,0.12,16c-3.01-0.53-6.03-1.05-9.08-1.13
		c-12.27-0.14-24.53,0.13-36.79,0.38c-0.24,2.12-0.47,4.23-0.69,6.35c-0.7,0.08-2.1,0.24-2.8,0.32c-0.04-3.38-0.08-6.77-0.11-10.16
		C312.94,51.52,328.24,51.77,343.54,51.6z"/>
	<path fill="#473122" d="M93.22,52.84c0.19-3.96-0.88-8.87,3.15-11.29c0.38,5.33,0.2,10.67,0.3,16c-2.8-0.84-5.69-1.4-8.62-1.31
		c-12.17,0.13-24.34,0.27-36.51,0.37c-0.09,2.26-0.18,4.52-0.27,6.78c-0.95,0.01-2.86,0.04-3.82,0.05
		c0.03-3.38,0.05-6.76,0.16-10.14C62.81,53.41,78.01,52.94,93.22,52.84z"/>
	<path fill="#473122" d="M122.46,44.6c1.47-0.29,2.93-0.59,4.4-0.88c-1.69,15.75,0,31.65-0.92,47.45c-0.89,0.01-2.66,0.03-3.55,0.05
		C122.2,75.68,122.57,60.14,122.46,44.6z"/>
	<path fill="#473122" d="M195.89,43.8c1.29-0.08,2.59-0.15,3.89-0.22c-1,7.44-0.52,14.95-0.62,22.43C199.07,75,199.21,84,199.14,93
		c-0.24,5.32-0.41,10.7,0.72,15.95c-5.42-0.17-10.83-0.06-16.24,0.04c-0.01-0.78-0.04-2.34-0.05-3.12c4.06-0.04,8.12-0.1,12.18-0.17
		C195.86,85.06,195.72,64.43,195.89,43.8z"/>
	<path fill="#473122" d="M211.06,52.29c5.57-0.13,11.15-0.15,16.72-0.16c0.04,0.8,0.12,2.4,0.16,3.2
		c-5.7,0.15-11.55-0.35-17.03,1.59C210.93,55.37,210.99,53.83,211.06,52.29z"/>
	<path fill="#473122" d="M328.57,77.74c0.18-3.98-1.44-9.46,3.23-11.44c0.6,5.4,0.09,10.82-0.26,16.23c-2.75-0.82-5.6-1.3-8.48-1.24
		c-7.22,0.01-14.45,0.12-21.67,0.09c-0.42,3.25-0.81,6.5-1.47,9.71c-3.8-3.33-2.07-8.74-2.3-13.14
		C307.93,77.76,318.25,77.87,328.57,77.74z"/>
	<path fill="#473122" d="M78.64,79.61c0.2-3.8-0.89-8.83,3.41-10.76c0.31,4.91,0.15,9.84,0.12,14.76
		c-10.1-1.81-20.42-0.56-30.6-0.31c-0.04,2.7-0.11,5.39-0.16,8.09c-0.96,0-2.88,0-3.84,0c0.03-3.91,0.05-7.81,0.09-11.72
		C57.99,79.63,68.31,79.46,78.64,79.61z"/>
	<path fill="#473122" d="M343.79,95.84c0.77-0.01,2.33-0.03,3.1-0.05c-0.1,4.61-0.2,9.23-0.15,13.84
		c-6.37-2.14-13.16-1.23-19.74-1.36c-14-0.08-28.02,0.35-42.01-0.17c0.76-1.25,1.26-3.1,3.12-2.74c18.34-0.42,36.71,0.26,55.04-0.47
		C343.34,101.87,343.51,98.85,343.79,95.84z"/>
	<path fill="#473122" d="M166.42,105.71c-0.17-3.57-0.42-7.79,3.5-9.47c0.38,4.8,0.3,9.62,0.18,14.42
		c-5.13-2.05-10.72-1.51-16.11-1.51c-14.26,0.1-28.53,0.32-42.8,0.07c0.02-0.73,0.05-2.18,0.07-2.91
		C129.65,106.46,148.04,106.15,166.42,105.71z"/>
	<path fill="#473122" d="M93.54,106.52c0.56-3.16,0.09-7.27,3.58-8.84c1.92,4.05,0.82,8.65,0.89,12.95
		c-2.29-0.53-4.59-1.11-6.95-1.16c-18.35,0.09-36.71,0.33-55.07,0.31c-0.05-0.72-0.15-2.15-0.21-2.87
		C55.03,106.51,74.29,106.6,93.54,106.52z"/>
</g>
<rect x="15.13" y="20" fill="#726C65" width="344.64" height="6.31"/>
<rect x="14.13" y="119" fill="#726C65" width="344.64" height="6.31"/>
</svg>
