<svg preserveAspectRatio="xMinYMin meet" viewBox="0 0 177 43" width="177" height="43" xmlns="http://www.w3.org/2000/svg"><g fill="none"><path d="M38 21.613C38 11.333 29.716 3 19.5 3S1 11.334 1 21.613C1 30.902 7.764 38.603 16.61 40V26.994H11.91v-5.381h4.699V17.51c0-4.664 2.763-7.242 6.988-7.242 2.024 0 4.141.363 4.141.363v4.58h-2.333c-2.298 0-3.016 1.435-3.016 2.909v3.492h5.13l-.819 5.381h-4.31V40C31.235 38.605 38 30.904 38 21.613z" fill="#455065"/><path d="M26.95 26.75l.83-5.39h-5.187v-3.496c0-1.473.723-2.912 3.048-2.912H28v-4.588S25.86 10 23.813 10c-4.27 0-7.063 2.58-7.063 7.253v4.107H12v5.39h4.75v13.025a19.163 19.163 0 005.844 0l-.001-13.025z" fill="#fff"/></g></svg>
