<svg preserveAspectRatio="xMinYMin meet" viewBox="0 0 177 43" width="177" height="43" xmlns="http://www.w3.org/2000/svg"><g fill="#515763" fill-rule="evenodd"><path d="m3.78266673 15.3539507h-3.78266673v-14.9090361h3.56050697v1.66910748c.44498072-1.00150416 1.55776312-1.89186231 3.00444636-2.0029422 2.44772456-.11107988 4.11656757 1.33527276 4.11656757 4.45073289v10.79213793h-3.89440781v-11.23698642c0-1.33527276 0-2.4478568-.88996144-2.67061164-.33390084-.11101376-.88996145 0-1.33560336.33317353-.5560606.55658956-.77888156 1.224259-.77888156 2.33743811z" transform="translate(86.499131 3.254906)"/><path d="m9.23470542 1.33527276c-.88976309-.7786832-2.0029422-1.33527276-3.33821496-1.33527276-1.33461157 0-2.33611573.55658956-3.33755377 1.33527276-1.55809372 1.33533888-2.55893669 3.78312956-2.55893669 6.45308002 0 2.78162542 1.00084297 5.11774112 2.55893669 6.45367512 1.00143804.7787493 2.0029422 1.3346777 3.33755377 1.3346777 1.33527276 0 2.44845187-.5559284 3.33821496-1.3346777 1.66917358-1.335934 2.55893668-3.6720497 2.55893668-6.45367512 0-2.66995046-.8897631-5.11774114-2.55893668-6.45308002zm-1.44635264 6.45308002c0 2.78162542 0 5.00732242-.44550968 6.11990652-.33317353.5559283-.66760332.889763-1.44635264.889763-.66700825 0-1.11185674-.3338347-1.33461157-.889763-.55658956-1.1125841-.55658956-3.3382811-.55658956-6.11990652 0-2.66995046 0-5.00672738.55658956-6.11990649.22275483-.55592837.66760332-.88976309 1.33461157-.88976309.77874932 0 1.11317911.33383472 1.44635264.88976309.55725075 1.11317911.44550968 3.44995603.44550968 6.11990649z" transform="translate(16.736338 3.365986)"/><path d="m8.78985694 0v4.00522321h-.77822038c-.44498072-1.66844629-1.1127824-3.11479893-2.89270528-3.22647389-1.1127824-.11107988-2.11448492.55652344-2.22622599 1.5580276-.11107989 1.00084297.22282095 1.89120113 2.22622599 3.00378517 2.55880445 1.44635264 4.56154829 2.11395597 4.56154829 5.11840231 0 3.22654-2.78162541 4.7845676-5.11827009 4.7845676-1.00170251 0-4.4511296 0-4.4511296 0v-5.56391198h.77954275c.5567218 2.89330038 1.44668324 4.67348768 3.56050697 4.78456758 1.33494216 0 2.33598349-.7786832 2.33598349-2.2250358 0-1.4463527-.88996144-2.33677694-3.00378517-3.56103594-2.33598349-1.44635264-3.78332792-2.33611573-3.78332792-4.33905793 0-2.67054552 1.89232515-4.33905793 4.89611032-4.33905793z" transform="translate(56.012312 24.283849)"/><path d="m17.245813 15.3539507v-10.79213793c0-3.11546013-1.6695042-4.56181277-4.1172287-4.45073289-1.668843.11107989-2.6698844 1.224259-3.1155263 2.11402209-.55606058-1.55743253-1.77992286-2.22510197-3.56050694-2.11402209-1.44536086.11107989-2.55880445 1.00143804-3.00378517 2.0029422v-1.66910748h-3.44876589v14.9090361h3.78266673s0-10.9031517 0-11.23698642c0-1.11317911.11107988-1.78084855.77888156-2.33743811.44564191-.33317353.89062264-.44418729 1.22386228-.33317353.88996145.22275484.88996145 1.33533888.88996145 2.67061164v11.23698642h3.78332788v-11.3480663c0-1.00209923.2221598-1.66976867.7788816-2.22635823.4449807-.33317353.8899614-.44418729 1.2238623-.33317353.8899614.22275484 1.0010413 1.33533888 1.0010413 2.67061164v11.23698642z" transform="translate(52.452466 3.254906)"/><path d="m0 0h3.89414333v18.0244962h-3.89414333z" transform="translate(31.089511 .584361)"/><path d="m11.3493226 18.0244962v-18.0244962h-3.89480454v4.22797805c-.33317353-.77868321-1.11258405-1.33527276-2.22510197-1.33527276-2.78162541 0-5.00732244 2.89270529-5.11840233 7.34343821-.11101376 3.0044463.89042428 8.0111076 4.78456761 8.0111076 1.55743253 0 2.4478568-.8897631 2.78169152-1.6691075v1.4463526zm-4.56247398-13.6848432c.77934439 1.11258404.77934439 3.78246838.77934439 5.8964905 0 2.2250358.11107988 5.1184023-.77934439 6.3420001-.33383472.4455097-.66700825.6676694-1.22359781.6676694-.7786832 0-1.22419288-.8897631-1.44635264-2.3361157-.11167496-1.3353389-.11167496-3.0044464-.11167496-4.7846337 0-3.00371907.22275484-6.34200015 1.66910748-6.34200015.55658956 0 .77868321.22282095 1.11251793.55658955z" transform="translate(37.431511 .584361)"/><path d="m9.01267789.7786832c1.00104131.55658956 1.66884301 1.44635265 1.66884301 3.44929485v11.01489275h-3.67158685v-1.6684463c-.44498072 1.2235978-1.66884301 2.0022811-3.3383472 2.0022811-1.33494217 0-3.67158685-.6670083-3.67158685-4.1163031 0-3.22720124 2.11448492-3.89414337 4.4511296-4.89564753 2.11382373-.88976309 2.33598349-1.00209923 2.33598349-1.89186232 0-.77808813 0-1.44635264 0-2.4478568 0-1.00077685-.55539941-1.44635265-1.668843-1.44635265-.44498072.11107989-1.22386229.33383472-1.22386229.88976309-.11174107.66833063.66714049.66833063.77888157 1.66976867.11107988 1.55743253-1.1127824 2.1133609-2.22490361 2.00228101-.77954276 0-1.6695042-.44484848-1.78058408-1.66844629-.11107988-2.00360339 2.11382372-3.67204968 5.22934997-3.67204968 1.44668324 0 2.33664468.33383472 3.11552624.7786832zm-2.2255648 5.56331693s-1.22386228.77868321-1.22386228.77868321c-1.22386228.77934439-1.44668324 1.78018736-1.55776312 2.89336646-.11107989.8897631-.11107989 1.6691075 0 3.0037852.11107988 1.2241929.89062263 1.4463526 1.55776312 1.2241929.77954275-.3337686 1.22386228-1.7801213 1.22386228-3.338215 0 0 0-4.00522321 0-4.56181277z" transform="translate(72.257103 3.365986)"/><path d="m9.01327296.66766944c1.00143804.66760332 1.55736644 1.44635264 1.55736644 3.44863365v11.12722891h-3.56030864v-1.6691075c-.4449146 1.112518-1.66851241 1.8912012-3.33828108 1.8912012-1.44635264 0-3.67204968-.5565896-3.67204968-4.0052232 0-3.22654005 2.11468327-3.89414337 4.34038031-4.89564753 2.22503585-1.00143804 2.4471295-1.11251793 2.4471295-1.89186232 0-.7786832 0-1.44635264 0-2.44779068 0-1.11258405-.55652344-1.55743253-1.6684463-1.44635265-.44550967 0-1.22425899.22275484-1.22425899.77868321-.11101377.77934439.66766944.77934439.77874932 1.78018736.11167495 1.44694772-1.11251792 2.0029422-2.22510197 2.0029422-.7786832-.11107988-1.66910748-.55599448-1.78078243-1.78018736-.11107988-1.89186232 2.11461715-3.56037473 5.23007728-3.56037473 1.44635264 0 2.33611573.22275484 3.11552624.66766944zm-2.22576315 5.56325081s-1.22353169.77874932-1.22353169.77874932c-1.22359781.77868321-1.44635265 1.78018737-1.55809372 2.89270529-.11107988.89042424-.11107988 1.78018734 0 3.00438024 0 1.3353389.77934439 1.5574325 1.44635264 1.2235978.89042428-.3338347 1.33527277-1.6684463 1.33527277-3.3375538 0 0 0-4.00588437 0-4.56187885z" transform="translate(17.180591 24.283849)"/><path d="m22.8088655 7.34350429c0-3.11552624-1.668843-4.67355384-4.1166998-4.450799-1.2235978.11107988-2.2250359.66766944-2.7816254 1.44635264v-4.33905793h-3.7831296v10.2362096c0 3.7830634-2.66995044 7.3434382-5.34049597 7.2317632-1.89192843 0-2.33677692-1.4463526-2.55887056-3.0037852-.33383472-2.225697-.33383472-4.78456758-.11174108-7.5662591.22275484-1.78012125.66766944-3.22647389 2.0029422-3.22647389 1.00150416 0 1.11251793.66760332.66766944 1.11251792-.44557579.55658956-1.11251792 1.11251793-.77874932 2.33671081.33317353 1.33533888 2.44719562 1.55743252 3.44929485.55658955.77874934-.89035816.66766944-2.3367108.11107988-3.22713508-.66766944-1.11251792-1.78018736-1.55743252-3.44929485-1.55743252-2.11402208 0-6.11924529 1.89126724-6.11924529 7.90009381 0 6.4530139 4.11630309 7.5655319 6.45308001 7.5655319 2.67054553 0 5.00672739-2.3367108 5.67433069-4.2279781v4.0058844h3.7831296v-11.2383088c0-1.11251793.2227548-1.78012125.7786832-2.3367108.4455758-.33323965 1.0015041-.44491461 1.3353389-.33323965.8903581.22215976.8903581 1.33467769.8903581 2.66995045v11.2383088h3.893945z" transform="translate(30.310761 21.391143)"/><path d="m13.4627496 0v6.34200013h-.7787493c-.6676034-3.11546012-2.113956-5.45223704-4.1168982-5.56331693-1.33533888-.11107988-2.1133609.66766944-2.78169152 1.78084856-.66700826 1.33461157-1.00143805 4.11630309-1.00143805 7.45451804 0 3.1154601.11167496 5.4515759.44550968 7.1206833.22209365.7787494.7786832 2.0029422 2.22503585 2.0029422.77874932 0 1.33533888-.2227548 1.6691736-.6676033.55658955-.6676694.66760332-2.0029422.66760332-2.8927053 0-1.4463526 0-1.8919284 0-3.0044463s-.33383472-1.7801874-.89042428-2.1140221c-.44484848-.2227548-1.11251792-.2227548-1.44635264-.3337686v-.77874933h6.23098634v15.91054023h-.7793444c-.3331735-1.2235978-.5559945-2.114022-1.1119228-3.1154601-.5565896-1.000843-1.5580276-2.1133609-3.2271351-2.1133609-1.78018737-.1116749-3.11552624 1.0014381-3.11552624 2.6699505 0 2.225697 1.33533887 2.7816254 3.78312956 4.1163031 2.33677688 1.3352727 5.34056208 2.4484518 5.34056208 6.3425952 0 3.7831295-3.22654 6.1199065-6.89792849 6.1199065-.77941051 0-5.89715165 0-5.89715165 0v-7.6772729h.77868321c1.00150416 5.7854105 3.44929484 6.7868486 5.11846844 6.7868486 2.11395597 0 3.11479889-1.3352728 3.11479889-3.22654-.1110798-2.4484519-1.77952613-3.338215-4.11630305-4.5618128-3.33755377-1.8918623-4.89564749-2.7822866-4.89564749-5.8970855.11107989-2.6706117 2.22569704-4.3397191 4.56181277-5.0067274-4.89564749-.5565896-6.34200013-5.0066612-6.23092025-9.79195616 0-4.78390642 2.78162541-9.90230874 8.23320126-9.90230874z" transform="translate(.714123 .250526)"/></g></svg>
