<svg preserveAspectRatio="xMinYMin meet" viewBox="0 0 177 43" width="177" height="43" xmlns="http://www.w3.org/2000/svg"><path d="M48.687 9c-.348 0-.682.136-.928.379a1.28 1.28 0 000 1.828c.247.242.58.378.928.377.727 0 1.313-.575 1.313-1.29 0-.343-.137-.673-.384-.916a1.32 1.32 0 00-.93-.378m0 .255c.583 0 1.058.465 1.058 1.04a1.05 1.05 0 01-1.057 1.038c-.581 0-1.05-.468-1.05-1.039 0-.574.468-1.039 1.05-1.039zm.668 1.712l-.157-.269c-.136-.237-.175-.272-.29-.314v-.006c.23-.026.366-.174.366-.375 0-.212-.137-.373-.429-.373h-.675v1.337h.28v-.547h.05c.119 0 .168.012.223.066.053.054.136.167.185.263l.109.218zm-.906-.763V9.84h.251c.186 0 .283.064.283.181 0 .094-.061.184-.25.184zm-6.535 6.189c-.056 1.377-2.104 6.886-2.832 8.101-.315.528-.67.963-1.311.961-.56 0-.808-.39-.823-.835-.042-1.243 2.274-7.475 3.066-8.489.352-.534.744-.62 1.194-.614.657.007.722.475.706.876m3.733 2.249c-.465 2.283-1.511 4.984-2.649 6.996-1.853 3.285-4.104 3.744-6.069 3.721-1.963-.023-4.181-.738-4.197-3.726-.012-2.145.927-5.173 1.725-7.157 1.388-3.6 2.808-6.532 7.297-6.48 5.234.061 4.301 4.649 3.893 6.646zm-16.62-3.2c-.759 0-1.254.472-1.623.983-.81 1.122-2.57 5.622-2.843 7.47-.185 1.267.368 1.523.976 1.523.972 0 2.062-1.014 2.434-2.687 0 0-1.852-.045-1.341-1.663.495-1.57 1.437-1.91 2.997-1.973 3.074-.124 2.77 2.113 2.524 3.305-.798 3.872-3.595 6.984-7.553 6.984-2.708 0-4.389-1.478-4.389-4.2 0-1.938.977-4.982 1.75-6.764 1.647-3.792 3.375-6.447 7.776-6.447 2.64 0 4.723.935 4.417 3.373-.223 1.79-1.131 2.84-2.782 2.967-.462.036-2.35-.012-1.724-1.773.218-.615.309-1.098-.62-1.098zm-13.77 6.706a27.555 27.555 0 00-.801 2.568c.897-.22 1.571-.376 2.726-.347 1.316.031 2.157.57 2.157 1.64 0 2.6-2.914 3.363-4.937 3.363-2.22 0-4.17-1.246-4.17-3.638 0-2.806 1.543-7.058 2.99-9.89C15 12.363 16.817 11.9 19.946 11.9c1.376 0 2.96.579 2.96 1.857 0 1.774-1.525 2.45-3.038 2.537-.644.036-1.638.071-2.232.03 0 0-.503.757-1.039 2.102 2.8-.389 3.988.238 3.515 1.834-.639 2.155-2.535 2.297-4.856 1.887zm-8.917 2.493c2.738-.469 3.427.508 3.34 1.409-.257 2.705-2.776 3.31-4.962 3.26-1.586-.037-3.011-.752-3.051-2.567-.07-3.173 3.215-10.514 4.762-12.947.713-1.157 1.584-1.726 2.971-1.726 1.314 0 1.64.664 1.621 1.46-.05 2.126-3.538 8.587-4.681 11.111zm35.213-14.256c-2.827 0-4.78 1.106-6.104 2.647a3.437 3.437 0 00-.633-.93c-1.082-1.206-2.824-1.77-5.16-1.77-2.282 0-4.184.703-5.505 1.81-.686-1.099-2.32-1.828-4.293-1.828-2.577 0-5.383.36-7.05 3.005-.038-.953-.126-1.456-.67-2.024-.66-.687-1.728-.868-2.768-.868-1.897 0-3.323.816-4.35 2.479C3.53 15.25-.08 22.966.001 26.7c.051 2.415 1.695 4.153 4.636 4.221 2.298.054 4.1-.55 5.246-1.69 1.028 1.099 2.598 1.746 4.475 1.746 2.09 0 4.196-.617 5.44-1.97 1.047 1.266 2.694 2.003 4.812 1.993a8.718 8.718 0 006.792-3.29c.87 2.338 3.082 3.267 5.498 3.267 5.293 0 7.616-3.585 9.553-9.257.437-1.278 1.018-3.41 1.116-5.2.16-2.981-1.12-6.135-6.017-6.135z" fill="#455065"/></svg>
