<svg preserveAspectRatio="xMinYMin meet" viewBox="0 0 177 43" width="177" height="43" xmlns="http://www.w3.org/2000/svg"><path d="M145.05 1.41v18.21c0 .9.46 1.42.95 1.76a4.1 4.1 0 0 0 2.3.52c.64 0 1.5-.22 1.5-.22v-1.63c-.26.02-.49.03-.74.03-1.52 0-1.75-.6-1.75-1.26V1.42h-2.26zm-47.88.19c-1.71 0-3.25.54-4.35 1.5a4.86 4.86 0 0 0-1.66 3.67c0 1.56.63 2.77 1.93 3.73a16.3 16.3 0 0 0 4.14 1.91c2.55.91 4.93 1.74 4.93 4.07 0 1.03-.35 1.92-1 2.52-.74.67-1.78.99-3.16.99-2.43 0-4.2-1.35-5.18-3.97l-2.18.58c.47 1.07 1.27 2.6 2.42 3.64a6.84 6.84 0 0 0 4.81 1.69c2.34 0 4.11-.6 5.27-1.82a5.75 5.75 0 0 0 1.47-4c0-1.62-.68-2.87-2.05-3.85a16.55 16.55 0 0 0-4.26-1.94c-2.46-.85-4.8-1.65-4.78-3.73.01-.97.35-1.73.95-2.25.62-.54 1.5-.8 2.64-.8 1.19 0 2.25.33 3.06.98.75.6 1.29 1.48 1.53 2.47l2.12-.28c-.93-3.18-3.2-5.11-6.65-5.11zM.28 1.87v19.78h2.27V3.57l.06.06L8 21.65h1.75l5.42-18.02.03-.06v18.08h2.26V1.87H13.7l-4.81 15.9v.06l-.03-.06-4.81-15.9H.28zm107.92.4v4.75h-2.18v1.82h2.18v10.78c0 .9.4 1.42.88 1.76a4.1 4.1 0 0 0 2.3.52 8 8 0 0 0 1.53-.22v-1.63c-.25.02-.51.03-.76.03-1.53 0-1.69-.6-1.69-1.26V8.84h2.45V7.02h-2.45V2.27h-2.26zM26.65 6.74c-1.9 0-3.52.78-4.65 2.22a8.75 8.75 0 0 0-1.63 5.36c0 2.11.58 4.01 1.63 5.36a5.7 5.7 0 0 0 4.65 2.22c1.92 0 3.53-.77 4.66-2.22a8.75 8.75 0 0 0 1.62-5.36c0-2.1-.57-4.01-1.62-5.36a5.7 5.7 0 0 0-4.66-2.22zm130.77.03c-.97 0-1.87.18-2.63.53-.75.34-1.42.85-1.93 1.5-1.03 1.3-1.63 3.22-1.63 5.55 0 2.6.74 4.57 2.09 5.89a6.27 6.27 0 0 0 4.47 1.66c3.25 0 4.85-1.77 5.51-3.39l-1.8-.9a3.9 3.9 0 0 1-3.71 2.5 3.75 3.75 0 0 1-3.1-1.5 6.25 6.25 0 0 1-1.13-3.83h9.93V13.4c0-2.4-.64-4.18-1.81-5.27-1-.93-2.4-1.36-4.26-1.36zM49.87 6.8c-2.55 0-6.18 1.73-6.18 7.55 0 5.65 3.61 7.55 6.06 7.55 1.43 0 2.73-.8 3.62-1.94l.12-.06v2.77c0 1.94-1.68 3.14-3.46 3.14-1.74 0-3.28-.33-4.54-.92v1.97a12 12 0 0 0 4.26.74c4.02 0 5.94-2.23 5.94-5.45V7.08h-1.68l-.5 1.54a4.27 4.27 0 0 0-3.64-1.82zm14.65 0a5.82 5.82 0 0 0-5.4 3.15l1.81.95c.25-.69 1.17-2.28 3.62-2.28 1.93 0 2.9.86 2.9 2.56v.52s.02.16-.02.22c-.08.09-.28.16-.77.21-2.7.3-4.5.75-5.82 1.6a4.6 4.6 0 0 0-2.33 4.01 4.29 4.29 0 0 0 4.29 4.22c2.39.08 3.96-.92 4.72-2.1.06.81.34 1.27.98 1.6.6.33 1.57.26 1.99.16v-1.54c-.5-.02-.83-.27-.83-.9v-7.05-.92a4 4 0 0 0-1.65-3.42 6.07 6.07 0 0 0-3.5-.99zm15.59 0c-1.48 0-2.99.77-4.26 2.22V7.08h-2.27v14.6h2.27V10.84c.77-.83 2.5-2.22 4.07-2.22 1.58 0 2.27.78 2.27 2.53v10.53h2.27v-10.6c0-3.15-2.23-4.28-4.35-4.28zm41.01 0a5.82 5.82 0 0 0-5.39 3.15l1.8.95c.26-.69 1.18-2.28 3.62-2.28 1.93 0 2.91.86 2.91 2.56v.52s-.01.16-.06.22c-.07.09-.24.16-.73.21-2.7.3-4.5.75-5.82 1.6a4.6 4.6 0 0 0-2.33 4.01 4.3 4.3 0 0 0 4.29 4.22c2.38.08 3.95-.92 4.71-2.1.06.81.35 1.27.99 1.6.59.33 1.57.26 1.99.16v-1.54c-.5-.02-.83-.27-.83-.9v-7.05-.92c0-1.46-.6-2.65-1.69-3.42a5.98 5.98 0 0 0-3.46-.99zm15.6 0c-1.48 0-2.99.77-4.26 2.22V7.08h-2.27v14.6h2.27V10.84c.77-.83 2.5-2.22 4.07-2.22 1.58 0 2.27.78 2.27 2.53v10.53h2.26v-10.6c0-3.15-2.23-4.28-4.35-4.28zm-93.9.06c-2.3 0-3.66.9-4.83 3.02v-2.8h-2.27v14.57H38V13.4c.56-3 2.14-4.4 4.84-4.4V6.85zm122.2.19l5.05 14.48v.12c-.3 1.4-1.17 3.1-1.96 3.64-.7.47-1.44.52-2.02.52-.28 0-.85-.1-1.1-.15v1.75a7.8 7.8 0 0 0 1.5.22c1.08 0 1.99-.27 2.76-.83.91-.67 1.93-2.42 2.42-3.91l5.05-15.84h-2.2l-3.31 11.21-.03.25-.07-.25-3.89-11.21h-2.2zM26.65 8.55c2.44 0 3.9 2.16 3.9 5.77 0 3.6-1.46 5.76-3.9 5.76-2.43 0-3.89-2.15-3.89-5.76 0-3.6 1.46-5.76 3.9-5.76zm23.38.04c1.28 0 2.4.56 3.46 1.88v6.96a4.01 4.01 0 0 1-3.46 2.65c-2.34 0-3.96-1.46-3.96-5.85 0-3.7 1.45-5.64 3.96-5.64zm107.45 0c2.6 0 3.76 1.38 3.77 4.37h-7.63c.2-2.99 1.45-4.37 3.86-4.37zm-89.96 5.15v3.7c-.1 1.27-2.48 2.81-4.41 2.7-1.07-.06-2.1-.92-2.2-2.34-.19-2.37 1.58-3.35 5.54-3.79.27-.02.8-.12 1.07-.27zm56.6 0v3.7c-.1 1.27-2.47 2.81-4.4 2.7-1.07-.06-2.1-.92-2.21-2.34-.18-2.37 1.6-3.35 5.54-3.79.28-.02.81-.12 1.07-.27z" fill="#515763" fill-rule="nonzero"/></svg>
