<svg preserveAspectRatio="xMinYMin meet" viewBox="0 0 177 43" width="177" height="43" xmlns="http://www.w3.org/2000/svg"><g fill="#515763" fill-rule="nonzero"><path d="M44.7 7.84H28.48l-.6.45v14.6h4.49v-5.47l.43-.4h11.9c3 0 4.41-.81 4.41-2.9v-3.36c0-2.1-1.4-2.92-4.41-2.92zm0 5.4c0 .98-.65 1.19-2.06 1.19h-9.8l-.47-.47v-3.13l.43-.4h9.84c1.41 0 2.06.2 2.06 1.2v1.6zM57.3 10.6l3.86 5.73-.21.55H52.4l-2.19 2.72h12.72l.88.54 1.98 2.76h5.14L59.67 7.65M108.39 19.93v-4.05l.46-.4h8.6v-2.59h-13.63v10h20.1v-2.56h-15.05M103.82 7.84h20.31v2.84h-20.31zM81.17 10.52h16.36c-.25-2.1-1.54-2.69-4.82-2.69H81c-3.7 0-4.87.73-4.87 3.56v7.94c0 2.84 1.17 3.57 4.87 3.57H92.7c3.33 0 4.6-.63 4.69-2.82H81.17l-.48-.46v-8.79M16.96 13.7H5.06l-.35-.39v-2.57l.35-.28H21.1l.22-.54c-.54-1.42-1.96-2.09-4.59-2.09H5.6c-3.7 0-4.87.73-4.87 3.56v1.67c0 2.83 1.18 3.56 4.87 3.56h11.87l.38.33v2.7l-.3.42H3.94v-.02H.39s-.4.21-.39.3c.3 1.99 1.64 2.55 4.83 2.55h12.13c3.7 0 4.91-.73 4.91-3.57v-2.07c0-2.83-1.21-3.56-4.9-3.56M136.9 7.77h-6.68l-.36.7 7.42 5.48a74.2 74.2 0 0 1 4.6-2.49M142.89 18.08l6.52 4.82h6.76l.28-.64-9.74-7.21c-1.3.96-2.57 1.97-3.82 3.03"/><path d="M135.9 22.89h-6.04l-.5-.81C133.45 18.06 151.83.84 191.78-1c0 0-33.53 1.14-55.88 23.89"/></g></svg>
