<svg preserveAspectRatio="xMinYMin meet" viewBox="0 0 177 43" width="177" height="43" xmlns="http://www.w3.org/2000/svg"><g fill="none" fill-rule="evenodd"><g fill="#455065"><path d="M6.764 10.374c3.172-1.55 7.02-1.56 10.222-.089-2.476-.205-4.95.615-7.012 1.953-2.142 1.379-3.718 3.591-4.36 6.051-.454 1.754-.376 3.665.35 5.335.998 2.384 3.429 4.157 6.044 4.164 1.491.015 2.996-.48 4.146-1.44a6.51 6.51 0 002.336-4.63c.065-1.442-.289-2.954-1.216-4.09-1.008-1.256-2.542-1.957-4.075-2.33-.153-2.31 1.641-4.505 3.888-4.956a12.003 12.003 0 015.817 5.98 11.946 11.946 0 01.57 8.026 11.937 11.937 0 01-4.073 6.123 11.892 11.892 0 01-7.387 2.592A11.876 11.876 0 015.38 31.1c-2.387-1.562-4.183-4.004-4.94-6.756a11.976 11.976 0 01.406-7.634 11.995 11.995 0 015.918-6.336M66.018 14.958c.383-.654 1.11-1.044 1.85-1.131a5.176 5.176 0 012.546.312c-.072.625-.168 1.246-.25 1.87-.61-.233-1.37-.415-1.96-.045-.456.309-.422.914-.405 1.399.622-.004 1.246-.001 1.87-.003v1.822c-.622 0-1.243.002-1.863-.003-.003 2.301-.001 4.602-.001 6.902-.745.001-1.49-.002-2.234.002-.003-2.302.002-4.603-.003-6.905-.387.006-.774.004-1.161.004a358.35 358.35 0 010-1.822c.387 0 .775 0 1.163.003-.021-.817 0-1.689.448-2.405M52.437 14.014c.75.005 1.499.003 2.248.002v12.066c-.687 0-1.373-.005-2.06.003a9.204 9.204 0 01-.09-.676c-1.03 1.157-2.94 1.105-4.09.159-1.14-.913-1.619-2.434-1.611-3.852-.03-1.507.592-3.117 1.9-3.951 1.08-.723 2.49-.758 3.703-.376 0-1.125-.002-2.25 0-3.375zM40.384 17.277c1.11-.247 2.354-.172 3.33.461 1.015.626 1.665 1.73 1.886 2.886.24 1.296.047 2.7-.666 3.823-.542.873-1.441 1.527-2.453 1.732-1.014.2-2.126.11-3.028-.426-.861-.487-1.485-1.328-1.804-2.255-.486-1.358-.406-2.917.254-4.204.492-.984 1.41-1.749 2.48-2.017zM60.928 17.244c.75.141 1.453.587 1.835 1.257.441.725.494 1.601.473 2.429-.002 1.717 0 3.433-.002 5.15-.686-.003-1.372-.003-2.058 0a9.538 9.538 0 00-.088-.645c-1.135 1.148-3.212 1.114-4.323-.05-.642-.677-.884-1.693-.637-2.59.2-.77.82-1.36 1.522-1.693 1.038-.493 2.201-.594 3.33-.681.027-.492-.093-1.098-.604-1.304-1.013-.434-2.142.05-2.967.666-.242-.53-.495-1.054-.738-1.582a5.527 5.527 0 014.257-.957zM76.475 17.725c1.034.623 1.699 1.747 1.909 2.92a5.296 5.296 0 01-.565 3.635 3.868 3.868 0 01-2.446 1.877c-1.104.242-2.332.137-3.29-.498-.964-.61-1.58-1.66-1.823-2.756-.32-1.333-.1-2.798.63-3.962a3.82 3.82 0 012.331-1.676c1.088-.23 2.298-.152 3.254.46zM82.047 18.041c.909-.732 2.139-1.053 3.287-.821.743.118 1.435.564 1.81 1.221.49.837.574 1.836.553 2.786v4.853c-.749.003-1.498-.002-2.247.003-.002-1.619-.003-3.238.001-4.857 0-.595-.07-1.247-.472-1.719a1.363 1.363 0 00-1.124-.47c-.681-.026-1.243.428-1.722.859.002 2.062 0 4.124.002 6.187-.747-.003-1.493-.003-2.24 0V17.36c.683.002 1.365.003 2.047-.001.039.226.072.454.105.682M91.99 19.354c-.407.317-.587.824-.655 1.318h3.35c-.064-.63-.352-1.309-.963-1.58-.563-.304-1.262-.133-1.732.262zm-1.782-.99c1.382-1.522 4.065-1.664 5.542-.21 1.041 1.09 1.252 2.688 1.206 4.134-1.885-.009-3.77-.003-5.653-.003-.002.763.387 1.563 1.127 1.852 1.179.456 2.565.17 3.58-.547.177.615.41 1.212.578 1.83-.926.602-2.045.812-3.132.856-1.154.029-2.38-.303-3.192-1.164-.978-.985-1.307-2.443-1.205-3.791.038-1.074.41-2.164 1.149-2.957zM27.963 17.36c.802 0 1.603.002 2.404 0 .7 1.789 1.411 3.574 2.112 5.363.052.13.115.257.18.382.727-1.915 1.457-3.83 2.193-5.742.762-.005 1.525.001 2.287-.003-1.186 2.904-2.37 5.808-3.55 8.715-.65.014-1.302.001-1.954.007-1.232-2.903-2.437-5.819-3.672-8.721"/></g><path d="M40.96 19.112c-.659.215-1.103.835-1.271 1.485-.214.82-.197 1.718.12 2.51.209.536.64 1.018 1.21 1.164.622.187 1.345.004 1.779-.484.582-.63.724-1.537.68-2.364-.032-.732-.258-1.51-.838-1.997-.453-.399-1.115-.477-1.68-.314zM58.798 22.431c-.45.258-.666.845-.507 1.335.139.393.565.593.96.613.641.073 1.267-.202 1.749-.61-.005-.595-.001-1.188-.003-1.782-.74.08-1.525.089-2.199.444zM73.798 19.094c-.583.174-1.029.668-1.234 1.229a4.005 4.005 0 00-.028 2.634c.142.397.362.786.71 1.04.657.504 1.682.453 2.269-.142.587-.575.762-1.44.767-2.233-.026-.806-.23-1.695-.892-2.221-.434-.372-1.053-.438-1.592-.307zM50.16 19.295c-.643.377-.995 1.105-1.103 1.82-.074.705-.023 1.439.267 2.093.218.493.628.926 1.156 1.08.712.21 1.512-.095 1.961-.673-.012-1.446 0-2.891-.006-4.337-.719-.273-1.58-.384-2.274.017z" fill="#fff"/></g></svg>
